<?xml version="1.0" encoding="iso-8859-1"?>
<!-- Uploaded to: SVG Repo, www.svgrepo.com, Generator: SVG Repo Mixer Tools -->
<svg height="800px" width="800px" version="1.1" id="Layer_1" xmlns="http://www.w3.org/2000/svg" xmlns:xlink="http://www.w3.org/1999/xlink" 
	 viewBox="0 0 511.987 511.987" xml:space="preserve">
<g>
	<path style="fill:#434A54;" d="M478.863,63.63c-4.172-4.164-4.172-10.922,0-15.086c4.156-4.164,10.922-4.172,15.078,0l7.547,7.539
		c4.171,4.164,4.171,10.922,0,15.086c-4.172,4.163-10.922,4.163-15.078,0L478.863,63.63z"/>
	<path style="fill:#434A54;" d="M440.989,25.748c-4.172-4.164-4.172-10.922-0.016-15.086c4.171-4.164,10.921-4.164,15.093,0
		l7.547,7.539c4.156,4.172,4.156,10.922,0,15.085c-4.172,4.172-10.922,4.172-15.094,0L440.989,25.748z"/>
	<path style="fill:#434A54;" d="M471.316,86.254l-7.547-7.547c-4.156-4.164-4.156-10.913,0-15.085
		c4.172-4.164,10.922-4.164,15.094,0l7.531,7.547c4.172,4.163,4.172,10.921,0,15.085C482.238,90.418,475.488,90.418,471.316,86.254z
		"/>
	<path style="fill:#434A54;" d="M433.442,48.372L433.442,48.372l-7.547-7.539c-4.171-4.164-4.171-10.921,0-15.085
		c4.172-4.164,10.922-4.164,15.078,0l0,0l7.546,7.546c4.172,4.164,4.172,10.914,0,15.078
		C444.363,52.544,437.598,52.544,433.442,48.372z"/>
</g>
<path style="fill:#965353;" d="M511.987,40.833c0-2.828-1.125-5.539-3.125-7.547L478.691,3.123c-4.156-4.164-10.922-4.164-15.078,0
	L242.166,224.555c-4.156,4.172-4.156,10.921,0,15.093l30.17,30.156l0,0c2,2,4.719,3.125,7.547,3.125s5.547-1.125,7.546-3.125
	L508.862,48.372C510.862,46.372,511.987,43.661,511.987,40.833z"/>
<path style="fill:#7F4545;" d="M508.862,33.286L478.691,3.123c-4.156-4.164-10.922-4.164-15.078,0l-45.264,45.249l45.264,45.249
	l45.249-45.249c2-2,3.125-4.711,3.125-7.539S510.862,35.294,508.862,33.286z"/>
<path style="fill:#F4BE8E;" d="M302.383,209.602c-30.202-30.202-56.045-44.89-78.981-44.89c-14.812,0-28.125,6.188-39.577,18.406
	c-9.031,9.64-15.453,21.343-20.609,30.749c-2.953,5.391-6.016,10.953-7.906,12.844c-5.281,5.28-25.39,12.249-43.124,18.405
	c-29.702,10.281-63.373,21.953-81.326,39.905C7.141,308.74-3.468,341.349,1,376.864c4.031,32.14,20.421,64.654,44.952,89.169
	c28.765,28.766,67.982,45.953,104.919,45.953l0,0c29.593,0,55.905-10.672,76.092-30.859c17.531-17.531,27.921-49.123,37.109-76.998
	c6.327-19.25,12.89-39.14,19.452-45.701c2.499-2.5,8.718-6.031,14.733-9.422c18.906-10.688,44.781-25.312,48.624-53.593
	C350.225,270.945,335.664,242.883,302.383,209.602z"/>
<path style="opacity:0.2;fill:#FFFFFF;enable-background:new    ;" d="M264.072,404.129c6.327-19.25,12.89-39.14,19.452-45.701
	c2.499-2.5,8.718-6.031,14.733-9.422c18.906-10.688,44.781-25.312,48.624-53.593c3.344-24.468-11.218-52.53-44.499-85.811
	c-1.281-1.281-2.531-2.516-3.797-3.734c30.625,31.624,43.969,58.483,40.766,81.998c-3.859,28.296-29.734,42.921-48.625,53.593
	c-6.03,3.406-12.249,6.922-14.749,9.422c-6.562,6.562-13.108,26.468-19.452,45.717c-9.172,27.859-19.578,59.452-37.109,76.982
	c-20.187,20.188-46.499,30.859-76.076,30.859c-0.016,0-0.016,0-0.016,0c-35.327,0-72.749-15.719-101.107-42.266
	c1.219,1.297,2.453,2.594,3.734,3.859c28.765,28.766,67.982,45.953,104.919,45.953l0,0c29.593,0,55.905-10.672,76.092-30.859
	C244.494,463.596,254.885,432.004,264.072,404.129z"/>
<path style="fill:#434A54;" d="M242.041,315.193c-12.5,12.5-32.75,12.5-45.249,0c-12.5-12.499-12.5-32.765,0-45.248
	c12.5-12.5,32.749-12.5,45.249,0C254.541,282.429,254.541,302.694,242.041,315.193z"/>
<path style="fill:#EAAD7A;" d="M219.417,335.224c-11.391,0-22.109-4.438-30.171-12.484c-16.64-16.64-16.64-43.702,0-60.342
	c8.062-8.062,18.781-12.5,30.171-12.5c11.406,0,22.109,4.438,30.171,12.5s12.5,18.765,12.5,30.171
	c0,11.391-4.438,22.108-12.5,30.171C241.526,330.787,230.807,335.224,219.417,335.224z M219.417,271.226
	c-5.703,0-11.062,2.219-15.078,6.25c-8.328,8.327-8.328,21.858,0,30.171c4.015,4.03,9.375,6.249,15.078,6.249
	s11.062-2.219,15.078-6.249c4.031-4.031,6.25-9.391,6.25-15.078c0-5.703-2.219-11.062-6.234-15.093
	C230.479,273.445,225.12,271.226,219.417,271.226z"/>
<path style="fill:#965353;" d="M189.245,393.738c-2.734,0-5.453-1.047-7.546-3.125l-60.327-60.342
	c-4.172-4.156-4.172-10.906,0-15.078c4.156-4.172,10.921-4.172,15.078,0l60.342,60.343c4.156,4.156,4.156,10.921,0,15.077
	C194.714,392.691,191.98,393.738,189.245,393.738z"/>
<g>
	<path style="fill:#434A54;" d="M410.724,116.167c-4.156,4.172-10.922,4.172-15.078,0c-4.172-4.156-4.172-10.921,0-15.077
		c4.156-4.172,10.922-4.172,15.078,0C414.896,105.246,414.896,112.011,410.724,116.167z"/>
	<path style="fill:#434A54;" d="M380.553,146.339c-4.156,4.171-10.922,4.171-15.078,0c-4.171-4.156-4.171-10.922,0-15.078
		c4.156-4.172,10.922-4.172,15.078,0C384.724,135.417,384.724,142.182,380.553,146.339z"/>
	<path style="fill:#434A54;" d="M350.382,176.51c-4.156,4.172-10.905,4.172-15.077,0s-4.172-10.922,0-15.078
		c4.172-4.172,10.921-4.172,15.077,0C354.554,165.588,354.554,172.338,350.382,176.51z"/>
</g>
</svg>