<?xml version="1.0" encoding="iso-8859-1"?>
<!-- Uploaded to: SVG Repo, www.svgrepo.com, Generator: SVG Repo Mixer Tools -->
<svg height="800px" width="800px" version="1.1" id="Layer_1" xmlns="http://www.w3.org/2000/svg" xmlns:xlink="http://www.w3.org/1999/xlink" 
	 viewBox="0 0 492.835 492.835" xml:space="preserve">
<ellipse transform="matrix(0.7071 -0.7071 0.7071 0.7071 -118.4659 234.6796)" style="fill:#CC055F;" cx="224.05" cy="260.341" rx="20" ry="39.2"/>
<path style="fill:#AF095C;" d="M201.666,472.072c-35.2,35.2-104,24.8-153.6-24.8c-49.6-48.8-60-117.6-24.8-153.6
	c35.2-35.2,104-24.8,153.6,24.8S237.666,436.872,201.666,472.072z"/>
<path style="fill:#F29C11;" d="M199.266,333.672c-28,28-84.8-6.4-123.2-44.8s14.4-8.8,42.4-36.8s30.4-69.6,68.8-31.2
	C225.666,259.272,227.266,305.672,199.266,333.672z"/>
<path style="fill:#BC005E;" d="M285.666,280.072c-20.8-9.6-41.6-12.8-60-11.2c4-28.8,0.8-60.8-10.4-86.4
	c-24-54.4-69.6,42.4-96.8,69.6c-8.8,8.8-20.8,12-31.2,12.8c-6.4,0-12.8,0.8-18.4,1.6c-0.8,0-1.6,0-2.4,0.8
	c-13.6,3.2-25.6,8.8-35.2,18.4c-36,36-24.8,104.8,24.8,154.4s118.4,60.8,153.6,24.8c9.6-9.6,16-21.6,18.4-35.2c0-0.8,0-1.6,0-1.6
	c0.8-5.6,1.6-12,1.6-18.4c1.6-10.4,4-22.4,13.6-31.2C271.266,349.672,340.066,304.072,285.666,280.072z"/>
<path style="fill:#D80579;" d="M285.666,280.072c-20.8-9.6-41.6-12.8-60-11.2c4-28.8,0.8-60.8-10.4-86.4
	c-24-54.4-69.6,42.4-96.8,69.6c-8.8,8.8-20.8,12-31.2,12.8c-6.4,0-12.8,0.8-18.4,1.6c-0.8,0-1.6,0-2.4,0.8
	c-13.6,3.2-25.6,8.8-35.2,18.4c-15.2,15.2-22.4,36.8-20.8,60.8h266.4C302.466,322.472,322.466,296.072,285.666,280.072z"/>
<path d="M248.066,290.472c-8,8-20-6.4-27.2-13.6l-1.6-1.6c-8-8-21.6-20-13.6-27.2l174.4-160c8-8,20-8,27.2,0l1.6,1.6
	c8,8,8,20,0,27.2L248.066,290.472z"/>
<g>
	<path style="fill:#3A382D;" d="M257.666,281.672c-8,8-20-6.4-27.2-13.6l-1.6-1.6c-8-8-21.6-20-13.6-27.2l174.4-160c8-8,20-8,27.2,0
		l1.6,1.6c7.2,8,7.2,20,0,27.2L257.666,281.672z"/>
	<path style="fill:#3A382D;" d="M433.666,105.672c-8,8-20,8-27.2,0l-16-16c-8-8-8-20,0-27.2l64.8-48c9.6-6.4,18.4-10.4,27.2,0
		l1.6,1.6c18.4,19.2-8.8,22.4-16.8,29.6L433.666,105.672z"/>
</g>
<path style="fill:#D3D3D3;" d="M148.866,411.272c-4.8,4.8-5.6,12-10.4,7.2l-61.6-61.6c-4.8-4.8,2.4-5.6,7.2-10.4l0,0
	c4.8-4.8,12.8-4.8,17.6,0l47.2,47.2C153.666,399.272,153.666,406.472,148.866,411.272L148.866,411.272z"/>
<path style="fill:#E8E3DD;" d="M152.066,408.072c-4.8,4.8-5.6,12-10.4,7.2l-61.6-61.6c-4.8-4.8,2.4-5.6,7.2-10.4l0,0
	c4.8-4.8,12.8-4.8,17.6,0l47.2,47.2C156.866,395.272,156.866,403.272,152.066,408.072L152.066,408.072z"/>
<g>
	<path style="fill:#CC055F;" d="M457.666,8.872c-1.6,1.6-4.8,0.8-5.6-0.8l0,0c-1.6-1.6-0.8-4.8,0.8-5.6l2.4-1.6
		c1.6-1.6,4.8-0.8,5.6,0.8l0,0c1.6,1.6,0.8,4.8-0.8,5.6L457.666,8.872z"/>
	<path style="fill:#CC055F;" d="M444.066,18.472c-1.6,1.6-4.8,0.8-5.6-0.8l0,0c-1.6-1.6-0.8-4.8,0.8-5.6l2.4-1.6
		c1.6-1.6,4.8-0.8,5.6,0.8l0,0c1.6,1.6,0.8,4.8-0.8,5.6L444.066,18.472z"/>
	<path style="fill:#CC055F;" d="M430.466,28.072c-1.6,1.6-4.8,0.8-5.6-0.8l0,0c-1.6-1.6-0.8-4.8,0.8-5.6l2.4-1.6
		c1.6-1.6,4.8-0.8,5.6,0.8l0,0c1.6,1.6,0.8,4.8-0.8,5.6L430.466,28.072z"/>
	<path style="fill:#CC055F;" d="M416.866,37.672c-1.6,0.8-4,0.8-5.6-1.6l0,0c-1.6-1.6-0.8-4.8,0.8-5.6l2.4-1.6
		c1.6-1.6,4.8-0.8,5.6,0.8l0,0c1.6,1.6,0.8,4.8-0.8,5.6L416.866,37.672z"/>
	<path style="fill:#CC055F;" d="M403.266,47.272c-1.6,1.6-4.8,0.8-5.6-0.8l0,0c-1.6-1.6-0.8-4.8,0.8-5.6l2.4-2.4
		c1.6-1.6,4.8-0.8,5.6,0.8l0,0c1.6,1.6,0.8,4.8-0.8,5.6L403.266,47.272z"/>
	<path style="fill:#CC055F;" d="M389.666,56.872c-1.6,1.6-4.8,0.8-5.6-0.8l0,0c-1.6-1.6-0.8-4.8,0.8-5.6l2.4-1.6
		c1.6-1.6,4.8-0.8,5.6,0.8l0,0c1.6,1.6,0.8,4.8-0.8,5.6L389.666,56.872z"/>
</g>
<path style="fill:#F29C11;" d="M408.866,106.472c-0.8,0.8-1.6,0.8-2.4,0l-16.8-16.8c-0.8-0.8-0.8-1.6,0-2.4l0,0
	c0.8-0.8,1.6-0.8,2.4,0l16.8,16.8C408.866,104.872,408.866,105.672,408.866,106.472L408.866,106.472z"/>
<g>
	<circle style="fill:#DDD3C3;" cx="375.266" cy="120.072" r="3.2"/>
	<path style="fill:#DDD3C3;" d="M346.466,153.672c-1.6,1.6-3.2,1.6-4.8,0c-1.6-1.6-1.6-3.2,0-4.8s3.2-1.6,4.8,0
		C347.266,150.472,347.266,152.872,346.466,153.672z"/>
	<circle style="fill:#DDD3C3;" cx="279.266" cy="216.872" r="3.2"/>
	<path style="fill:#DDD3C3;" d="M312.066,178.472c-1.6,1.6-3.2,1.6-4.8,0c-1.6-1.6-1.6-3.2,0-4.8s3.2-1.6,4.8,0
		C312.866,175.272,312.866,177.672,312.066,178.472z"/>
	<path style="fill:#DDD3C3;" d="M321.666,188.072c-1.6,1.6-3.2,1.6-4.8,0c-1.6-1.6-1.6-3.2,0-4.8s3.2-1.6,4.8,0
		C322.466,184.872,322.466,187.272,321.666,188.072z"/>
</g>
<path style="fill:#3A382D;" d="M177.666,372.872c-1.6,1.6-4.8,1.6-6.4,0l-48-48c-1.6-1.6-1.6-4.8,0-6.4l13.6-13.6
	c1.6-1.6,4.8-1.6,6.4,0l48,48c1.6,1.6,1.6,4.8,0,6.4L177.666,372.872z"/>
<g>
	<circle style="fill:#E8E3DD;" cx="138.466" cy="320.072" r="1.6"/>
	<circle style="fill:#E8E3DD;" cx="145.666" cy="328.072" r="1.6"/>
	<circle style="fill:#E8E3DD;" cx="153.666" cy="335.272" r="1.6"/>
	<circle style="fill:#E8E3DD;" cx="160.866" cy="342.472" r="1.6"/>
	<circle style="fill:#E8E3DD;" cx="168.066" cy="349.672" r="1.6"/>
	<circle style="fill:#E8E3DD;" cx="175.266" cy="356.872" r="1.6"/>
</g>
<path style="fill:#3A382D;" d="M206.466,344.072c-1.6,1.6-4.8,1.6-6.4,0l-48-48c-1.6-1.6-1.6-4.8,0-6.4l13.6-13.6
	c1.6-1.6,4.8-1.6,6.4,0l48,48c1.6,1.6,1.6,4.8,0,6.4L206.466,344.072z"/>
<g>
	<circle style="fill:#E8E3DD;" cx="167.266" cy="292.072" r="1.6"/>
	<circle style="fill:#E8E3DD;" cx="174.466" cy="299.272" r="1.6"/>
	<circle style="fill:#E8E3DD;" cx="181.666" cy="306.472" r="1.6"/>
	<circle style="fill:#E8E3DD;" cx="189.666" cy="313.672" r="1.6"/>
	<path style="fill:#E8E3DD;" d="M197.666,322.472c-0.8,0.8-1.6,0.8-2.4,0c-0.8-0.8-0.8-1.6,0-2.4s1.6-0.8,2.4,0
		C198.466,320.072,198.466,321.672,197.666,322.472z"/>
	<circle style="fill:#E8E3DD;" cx="204.066" cy="328.072" r="1.6"/>
</g>
</svg>