<?xml version="1.0" ?>
<!-- Uploaded to: SVG Repo, www.svgrepo.com, Generator: SVG Repo Mixer Tools -->
<svg width="800px" height="800px" viewBox="0 0 512 512" xmlns="http://www.w3.org/2000/svg">
<defs>
<style>.e{fill:#f4c762;}.f{fill:#eab84b;}.g{fill:#8c8c8c;}.h{fill:#cecece;}.i{fill:#dfdfdf;}.j{fill:#41a08e;}.k{fill:#349381;}.l{fill:#365650;}.m{fill:#6e6e6e;}.n{fill:#575757;}.o{fill:#75bbad;}</style>
</defs>
<g id="a"/>
<g id="b"/>
<g id="c">
<g>
<path class="i" d="M488,192l-3.64551-14.58105c-2.69434-10.77832-10.93604-19.29932-21.61865-22.35156l-38.73584-11.06738v-32h-32v32l-38.73584,11.06738c-10.68262,3.05225-18.92432,11.57324-21.61865,22.35156l-3.64551,14.58105,24,31.2002v72.7998h112v-72.7998l24-31.2002Z"/>
<path class="j" d="M328,192l3.64551-14.58105c2.69434-10.77832,10.93604-19.29932,21.61865-22.35156l38.73584-11.06738c5.77734,14.44336,26.22266,14.44336,32,0l38.73584,11.06738c10.68262,3.05225,18.92432,11.57324,21.61865,22.35156l3.64551,14.58105-24,31.2002v72.7998h-112v-72.7998l-24-31.2002Z"/>
<polygon class="k" points="438.02372 204.51767 451.23535 186.35254 444.76465 181.64746 431.58789 199.76465 438.02372 204.51767"/>
<polygon class="i" points="224 360 234.6665 488 277.3335 488 288 360 224 360"/>
<path class="f" d="M308.39502,71.38208l-4.39502-15.38208h0c0-17.6731-14.32666-32-32-32h-26.89941c-12.80078,0-24.37012,7.62866-29.4126,19.39453h0c-10.2002,23.80078-12.66602,50.20459-7.04858,75.48242l7.73755,34.80176,.85762,3.98779h84.53789l2.53857-6.44458c10.17041-25.42554,11.60693-53.50928,4.08398-79.83984Z"/>
<path class="i" d="M224,72l2.34315,11.71576c3.62202,18.1101,14.2899,34.03961,29.65682,44.28423l.00002,.00002,.28306-.14153c19.92718-9.96359,33.88394-28.86048,37.54663-50.83661l2.17031-13.02186-32-16-40,24Z"/>
<path class="i" d="M316.24951,181.24707c-2.65088-13.25488-11.81689-24.27417-24.36768-29.29443l-19.88184-7.95264v-40h-32v40l-19.88184,7.95264c-12.55054,5.02026-21.71655,16.03955-24.36768,29.29443l-3.75049,18.75293,48.1748,75.70312c3.45264,5.42578,9.94751,7.70923,15.82031,6.09351l.00269,.00659c5.87427,1.61914,12.37329-.67236,15.82739-6.1001l48.1748-75.70312-3.75049-18.75293Z"/>
<path class="h" d="M256,132c-.77637,0-1.5498-.22559-2.21875-.67188-4.99707-3.33105-9.57812-7.27051-13.61719-11.70996l5.91797-5.38281c3.07617,3.38086,6.50586,6.43652,10.21777,9.10742,3.68652-1.98926,7.18457-4.33203,10.41895-6.98047l5.06836,6.18945c-4.2168,3.45312-8.83105,6.44238-13.71484,8.88477l-.2832,.1416c-.56543,.28223-1.17773,.42188-1.78906,.42188Z"/>
<path class="e" d="M195.75049,181.24707c2.65088-13.25488,11.81689-24.27417,24.36768-29.29443l19.88184-7.95264,16,56,16-56,19.88184,7.95264c12.55054,5.02026,21.71655,16.03955,24.36768,29.29443l3.75049,18.75293-16,25.14282v46.85718h-96v-47.16431l-.05518,.22021-15.94482-25.05591,3.75049-18.75293Z"/>
<polygon class="f" points="235.87947 225.03013 244.11516 222.9618 227.32813 197.78125 220.67188 202.21875 235.87947 225.03013"/>
<path class="i" d="M184,200l-5.11279-20.45093c-1.81909-7.27637-6.9353-13.28394-13.82935-16.23853l-45.05786-19.31055v-22.56836h-32v22.56836l-45.05786,19.31055c-6.89404,2.95459-12.01025,8.96216-13.82935,16.23853l-5.11279,20.45093,15.88232,22.94116h0l8.11768,73.05884h112l8.11768-73.05884h0l15.88232-22.94116Z"/>
<path class="j" d="M184,200l-5.11279-20.45093c-1.81909-7.27637-6.9353-13.28394-13.82935-16.23853l-45.05786-19.31055-16,16-16-16-45.05786,19.31055c-6.89404,2.95459-12.01025,8.96216-13.82935,16.23853l-5.11279,20.45093,15.88232,22.94116,8.11768,73.05884h112l8.11768-73.05884,15.88232-22.94116Z"/>
<path class="i" d="M140.11279,84.78979l-4.81209-33.6764-60.06607,4.8866-5.52932,27.47314c-3.3064,16.53198,5.6521,33.06982,21.30566,39.3313h0c8.33813,3.33521,17.63989,3.33521,25.97803,0l1.49048-.59619c14.97754-5.99121,23.91455-21.44922,21.6333-37.41846Z"/>
<path class="f" d="M104,24c-17.6731,0-32,14.3269-32,32v16l48.62158-9.72437c18.24512-3.64893,31.37842-19.66895,31.37842-38.27563h-48Z"/>
<rect class="o" height="8" width="16" x="96" y="188"/>
<rect class="o" height="8" width="16" x="96" y="220"/>
<polygon class="g" points="48 296 64 488 144 488 160 296 48 296"/>
<rect class="m" height="168" width="8" x="100" y="320"/>
<path class="g" d="M304,272h-96c-10.33105,25.82764-11.1731,54.48096-2.37646,80.87061l2.37646,7.12939h96l2.37646-7.12939c8.79639-26.38965,7.95459-55.04297-2.37646-80.87061Z"/>
<path class="i" d="M368,64l6.66064,39.96338c.84131,5.04932,4.04834,9.39111,8.62695,11.68018l24.7124,12.35645,25.00098-12.50049c4.41602-2.20801,7.56543-6.3313,8.53369-11.17285l6.46533-32.32666-80-8Z"/>
<path class="f" d="M448,72l-80-8-2.14807-6.4442c-3.45503-10.36508,.45474-21.76025,9.54552-27.82077l.00002-.00002c5.4953-3.66353,12.24801-4.9249,18.69526-3.49218l61.90726,13.75717-8,32Z"/>
<rect class="g" height="192" width="112" x="352" y="296"/>
<rect class="m" height="160" width="8" x="404" y="328"/>
<path class="n" d="M436,456c-15.46387,0-28,12.53613-28,28v4h56v-4c0-15.46387-12.53613-28-28-28Z"/>
<polygon class="o" points="104 160 128 176 148 156 120 144 104 160"/>
<polygon class="o" points="88 144 60 156 80 176 104 160 88 144"/>
<path class="i" d="M114.12256,244.08154l-17.8125,24.49194c-4.7854,6.58008-4.07275,15.66382,1.68066,21.41724h0c7.29443,7.29443,19.41455,6.20166,25.28662-2.28027l17.77539-25.67529-26.93018-17.95361Z"/>
<polygon class="k" points="117.45364 246.30228 110.76102 241.83782 148.76465 189.64746 155.23535 194.35254 117.45364 246.30228"/>
<polygon class="k" points="144.38135 264.25415 166.99609 231.58789 160.41797 227.03516 137.72388 259.81592 144.38135 264.25415"/>
<polygon class="k" points="90.54637 246.30228 52.76465 194.35254 59.23535 189.64746 97.20697 241.85832 90.54637 246.30228"/>
<polygon class="k" points="63.66602 264.32324 41.03711 231.6377 47.61523 227.08301 70.27667 259.81554 63.66602 264.32324"/>
<path class="i" d="M93.87744,244.08154l-26.93018,17.95361,17.77539,25.67529c5.87207,8.48193,17.99219,9.57471,25.28662,2.28027h0c5.75342-5.75342,6.46606-14.83716,1.68066-21.41724l-17.8125-24.49194Z"/>
<path class="h" d="M97.69629,294.97754c-.89453-.64453-1.74707-1.37109-2.53418-2.15918-7.18945-7.18945-8.06738-18.375-2.08594-26.59766l7.68848-10.57324,6.4707,4.70508-7.68945,10.57324c-3.65137,5.01953-3.11621,11.84766,1.27246,16.23633,.48633,.48535,1.00977,.93262,1.55762,1.32715l-4.67969,6.48828Z"/>
<path class="h" d="M116.99219,118.49414l-1.48828,.59668c-7.41992,2.9668-15.58984,2.96582-23.00586,.00098-.38184-.15332-.75977-.31348-1.13184-.47949l-3.26953,7.30078c.46973,.21094,.94531,.41211,1.42871,.60547,4.66699,1.86621,9.57031,2.7998,14.47461,2.7998,4.90332,0,9.80859-.93359,14.47656-2.7998l1.49023-.59668-2.97461-7.42773Z"/>
<path class="i" d="M264.08496,260.12769l-24.08496-36.12769-28.23535,7.05884,28.41016,44.64429c4.29443,6.74854,13.29712,8.64893,19.95264,4.21191l.00049-.00024c6.55664-4.37134,8.32861-13.23022,3.95703-19.78711Z"/>
<path class="i" d="M272,224l-24.08496,36.12769c-4.37134,6.55688-2.59961,15.41577,3.95728,19.78711v.00024c6.65601,4.43701,15.65845,2.53662,19.95288-4.21191l28.41016-44.64429-28.23535-7.05884Z"/>
<path class="h" d="M265.2002,280.89453l-5.68164-5.63281c3.41211-3.44141,3.93262-8.87305,1.23828-12.91504l-6.59766-9.89746,6.65625-4.4375,6.59766,9.89746c4.79297,7.18945,3.8623,16.85645-2.21289,22.98535Z"/>
<rect class="h" height="128" width="8" x="252" y="360"/>
<path class="n" d="M380,456c-15.46387,0-28,12.53613-28,28v4h56v-4c0-15.46387-12.53613-28-28-28Z"/>
<path class="n" d="M84,456c-11.04565,0-20,8.95435-20,20v12h40v-12c0-11.04565-8.95435-20-20-20Z"/>
<path class="n" d="M124,456c-11.04565,0-20,8.95435-20,20v12h40v-12c0-11.04565-8.95435-20-20-20Z"/>
<path class="n" d="M240,456c-8.83643,0-16,7.16333-16,16v16h32v-16c0-8.83667-7.16357-16-16-16Z"/>
<path class="n" d="M272,456c-8.83643,0-16,7.16333-16,16v16h32v-16c0-8.83667-7.16357-16-16-16Z"/>
<path class="i" d="M434.82373,202.11768l-42.26611,58.11572c-4.92822,6.77588-4.19434,16.12988,1.73047,22.05444h0c7.26758,7.26782,19.26855,6.48828,25.53516-1.65845l43.78662-56.92212-28.78613-21.5896Z"/>
<path class="i" d="M423.44238,260.2334l-42.26611-58.11572-28.78613,21.5896,43.78662,56.92212c6.2666,8.14673,18.26758,8.92627,25.53516,1.65845,5.9248-5.92456,6.65869-15.27856,1.73047-22.05444Z"/>
<path class="h" d="M393.48438,268.05664l-7.88672-1.33984c.53809-3.16992,1.82617-6.22559,3.72461-8.83594l14.71484-20.2334,6.4707,4.70508-14.71484,20.2334c-1.19434,1.6416-1.9707,3.48242-2.30859,5.4707Z"/>
<polygon class="f" points="276.12053 225.03013 267.88484 222.9618 284.67188 197.78125 291.32812 202.21875 276.12053 225.03013"/>
<polygon class="k" points="377.97628 204.51767 364.76465 186.35254 371.23535 181.64746 384.41211 199.76465 377.97628 204.51767"/>
<rect class="l" height="8" width="16" x="96" y="188"/>
<rect class="l" height="8" width="16" x="96" y="220"/>
<path class="l" d="M491.88086,191.0293l-3.64551-14.58008c-3.03223-12.12793-12.38086-21.79395-24.40039-25.22754l-35.83496-10.23926v-18.50928l6.79004-3.39502c5.55957-2.78027,9.44727-7.87109,10.66699-13.96777l6.44336-32.21875,7.98047-31.92188c.26172-1.04688,.08887-2.1543-.47852-3.07227s-1.48145-1.56836-2.53418-1.80176l-61.9082-13.75684c-7.47168-1.66211-15.41406-.17773-21.78125,4.06836-10.5625,7.04199-15.13574,20.37012-11.12207,32.41309l2.05029,6.14941,6.60791,39.65137c1.04883,6.29004,5.08008,11.74805,10.7832,14.60059l6.50195,3.25098v18.50977l-35.83496,10.23926c-12.01953,3.43359-21.36816,13.09961-24.40039,25.22754l-3.64551,14.58105c-.2959,1.18457-.03418,2.44043,.70996,3.4082l23.1709,30.12231V488c0,2.20898,1.79102,4,4,4h112c2.20898,0,4-1.79102,4-4V224.56055l23.1709-30.12207c.74414-.96777,1.00586-2.22363,.70996-3.40918ZM377.61621,33.06348c4.56543-3.04297,10.25488-4.10547,15.6084-2.91602l57.89844,12.86621-6.16504,24.66211-73.98242-7.39844-1.3291-3.98633c-2.87695-8.62988,.40039-18.18164,7.96973-23.22754Zm.98926,70.24219l-5.80078-34.80493,70.4082,7.04077-5.59961,27.99951c-.73242,3.6582-3.06543,6.71289-6.40137,8.38086l-23.21191,11.60645-22.92383-11.46289c-3.42285-1.71094-5.84082-4.98535-6.4707-8.75977Zm27.60547,28.27246c.56348,.28125,1.17578,.42188,1.78906,.42188s1.22559-.14062,1.78906-.42188l10.21094-5.10522v16.68042c-2.57178,5.63818-7.82568,7.67969-12,7.67969s-9.42822-2.0415-12-7.67969v-16.68066l10.21094,5.10547Zm-3.15723,107.42188l-13.73145,18.88086c-.96973,1.3335-1.74316,2.74878-2.36279,4.20605l-28.92969-37.60889,22.29932-16.72461,22.72461,31.24658Zm32.61719-31.24658l22.29932,16.72461-41.31787,53.71338c-2.28516,2.9707-5.74023,4.81348-9.48047,5.05664-3.74316,.23633-7.40527-1.1377-10.05566-3.78809-4.56055-4.56055-5.11719-11.65723-1.32324-16.87402l39.87793-54.83252Zm-79.6709,276.24658c0-13.2334,10.7666-24,24-24s24,10.7666,24,24h-48Zm56,0c0-13.2334,10.7666-24,24-24s24,10.7666,24,24h-48Zm24-32c-9.55078,0-18.13184,4.21118-24,10.86816v-134.86816h-8v134.86816c-5.86816-6.65698-14.44922-10.86816-24-10.86816s-18.13184,4.21118-24,10.86816v-162.86816h104v162.86816c-5.86816-6.65698-14.44922-10.86816-24-10.86816Zm24-160h-104v-57.03906l29.50928,38.36255c.64209,4.32666,2.63379,8.47583,5.95068,11.79272,3.95508,3.95605,9.30957,6.15918,14.86719,6.15918,.45312,0,.9082-.01465,1.36328-.04492,6.03711-.3916,11.61426-3.36621,15.30371-8.16211l37.00586-48.10767v57.03931Zm2.84863-73.86401l-22.47119-16.85376,10.85791-14.92969-6.4707-4.70508-36.76465,50.55151-36.76465-50.55151-6.4707,4.70508,10.85791,14.92969-22.47119,16.85376-20.80176-27.04224,3.17676-12.70508c2.33984-9.36133,9.55762-16.82422,18.83594-19.47559l35.56104-10.16016c3.80908,6.29248,10.45312,10.08008,18.07666,10.08008s14.26758-3.7876,18.07666-10.08008l35.56104,10.16016c9.27832,2.65137,16.49609,10.11426,18.83594,19.47559l3.17676,12.70508-20.80176,27.04224Z"/>
<path class="l" d="M320.1709,180.46289c-1.88477-9.427-6.72461-17.7666-13.62549-23.99878l1.47998-3.75708c10.44434-26.11133,11.94141-55.38379,4.21484-82.42383l-4.24512-14.85938c-.30859-19.58594-16.33691-35.42383-35.99512-35.42383h-26.89941c-14.4209,0-27.40918,8.56445-33.08887,21.81836-10.5957,24.72168-13.1123,51.66797-7.27637,77.92676l7.09937,31.93237c-10.2937,6.34619-17.58423,16.67261-20.00562,28.7854l-3.75098,18.75293c-.20312,1.01074-.00684,2.06152,.54688,2.93164l15.375,24.16064v44.94556c-10.39209,26.48022-11.17139,55.87915-2.17188,82.8811l2.37695,7.12988c.54492,1.63379,2.07324,2.73535,3.79492,2.73535h12.31934l7.6709,92.04517c-4.84131,3.65356-7.99023,9.43579-7.99023,15.95483v16c0,2.20898,1.79102,4,4,4h64c2.20898,0,4-1.79102,4-4v-16c0-6.51904-3.14893-12.30127-7.99023-15.95483l7.6709-92.04517h12.31934c1.72168,0,3.25-1.10156,3.79492-2.73535l2.37695-7.12988c8.99951-27.00195,8.22021-56.40088-2.17188-82.8811v-44.94556l15.375-24.16064c.55371-.87012,.75-1.9209,.54688-2.93164l-3.75098-18.75293ZM219.36523,44.96973c4.41797-10.30859,14.51953-16.96973,25.73535-16.96973h26.89941c15.43945,0,28,12.56055,28,28,0,.37207,.05176,.74121,.1543,1.09863l4.39453,15.38184c7.24121,25.34473,5.83789,52.78125-3.95898,77.27539l-.69385,1.76172c-2.06592-1.25342-4.23877-2.36255-6.52881-3.27832l-17.36719-6.94727v-22.49902c11.36279-10.88232,19.13623-25.28125,21.77539-41.11426l2.16992-13.02148c.28906-1.73145-.58594-3.44922-2.15625-4.23535l-32-16c-1.22461-.6123-2.67578-.55566-3.84668,.14844l-40,24c-1.4502,.86914-2.19629,2.55664-1.86426,4.21387l2.34277,11.71582c2.22656,11.13574,6.89331,21.37598,13.5791,30.15088v26.64111l-16.78662,6.71509-6.66943-29.99829c-5.46875-24.61133-3.11035-49.86719,6.82129-73.03906Zm48.63477,98.47168l-12,41.99805-12-41.99805v-19.91577c3.01123,2.83936,6.26758,5.45996,9.78125,7.80249,.66895,.44629,1.44238,.67188,2.21875,.67188,.61133,0,1.22363-.13965,1.78906-.42188l.2832-.1416c3.48779-1.74414,6.80176-3.7583,9.92773-6.00171v18.00659Zm-11.70117-20.09863c-13.53906-9.7207-22.74805-23.98535-26.03418-40.41113l-1.79004-8.95215,35.7002-21.41992,27.39355,13.69727-1.68359,10.10742c-3.33008,19.97461-15.82227,37.3916-33.58594,46.97852Zm4.45801,139.00391c3.14062,4.71094,1.86328,11.09961-2.84766,14.24023-2.31641,1.54492-5.08984,2.08008-7.81738,1.50293-2.72363-.57422-5.04785-2.18457-6.54199-4.53418l-25.43066-39.9624,20.11621-5.02881,22.52148,33.78223Zm13.00732-33.78247l20.11719,5.02905-23.61621,37.11084c.66553-4.48486-.31836-8.99561-2.85205-12.79492l-6.60645-9.90942,12.95752-19.43555Zm-43.23291,39.43579h-18.53125v-29.12061l18.53125,29.12061Zm-2.18384,96h23.65259v92.03784c-3.34717-2.52271-7.49487-4.03784-12-4.03784-1.46997,0-2.89893,.17017-4.27954,.47241l-7.37305-88.47241Zm-.34741,108c0-6.61719,5.38281-12,12-12s12,5.38281,12,12v12h-24v-12Zm56,12h-24v-12c0-6.61719,5.38281-12,12-12s12,5.38281,12,12v12Zm-7.7207-31.52759c-1.38037-.30225-2.80957-.47241-4.2793-.47241-4.50488,0-8.65283,1.51514-12,4.03784v-92.03784h23.65283l-7.37354,88.47241Zm26.30273-100.86694l-1.46484,4.39453h-90.23438l-1.46484-4.39453c-8.20264-24.60938-7.68823-51.34473,1.35425-75.60547h24.84985l1.17773,1.85059c2.66016,4.17969,6.79395,7.04395,11.64062,8.06738,1.27051,.26855,2.54883,.40039,3.81641,.40039,1.26733,0,2.52344-.13867,3.75391-.40063,1.27832,.27197,2.56055,.40942,3.8291,.40942,6.12598,0,11.93262-3.08984,15.36035-8.47656l1.17773-1.85059h24.8501c9.04248,24.26074,9.55664,50.99609,1.354,75.60547Zm-2.58203-83.60547h-18.53125l18.53125-29.12061v29.12061Zm-1.59131-41.52124l-19.93213-4.98291,12.85156-19.2771-6.65625-4.4375-28.67236,43.00757-28.67139-43.00757-6.65625,4.4375,12.85132,19.2771-19.93164,4.98267-17.35425-27.27051,3.43555-17.17676c2.39453-11.97363,10.59277-21.83008,21.93066-26.36426l15.76807-6.30762,14.78271,51.73926c.49023,1.71777,2.05957,2.90137,3.8457,2.90137s3.35547-1.18359,3.8457-2.90137l14.78271-51.73926,15.76807,6.30762c11.33789,4.53418,19.53613,14.39062,21.93066,26.36426l3.43555,17.17773-17.354,27.26978Z"/>
<path class="l" d="M182.76855,178.57812c-2.11035-8.4375-8.1416-15.51953-16.13477-18.94434l-42.63379-18.27148v-17.33301c14.27051-7.67407,22.41064-23.43945,20.07324-39.80469l-3.85254-26.96558c9.70239-7.979,15.7793-20.05347,15.7793-33.25903,0-2.20898-1.79102-4-4-4h-48c-19.85059,0-36,16.14941-36,36v15.60645l-2.2168,11.08301c-3.27417,16.37231,4.25659,32.74731,18.2168,41.08618v17.58667l-42.63281,18.27148c-7.99414,3.4248-14.02539,10.50684-16.13574,18.94531l-5.1123,20.45117c-.2793,1.11621-.06348,2.2998,.5918,3.24609l15.30811,22.11182,7.99878,71.99463,15.99585,191.94922,.01953-.00171c.1709,2.05176,1.87109,3.66968,3.9668,3.66968h80c2.0957,0,3.7959-1.61792,3.9668-3.66968l.01953,.00171,15.99585-191.94922,7.99878-71.99487,15.30811-22.11157c.65527-.94629,.87109-2.12988,.5918-3.24609l-5.1123-20.45215Zm-41.77466-21.22852l-13.50366,13.50293-17.21216-11.47437,10.63477-10.63477,20.08105,8.6062Zm-48.9939-29.94678c3.91211,1.26978,7.95459,1.91553,12,1.91553,4.04419,0,8.0874-.64551,12-1.91528v14.94067l-12,11.99902-12-11.99902v-14.94092Zm-16-71.40283c0-15.43945,12.56055-28,28-28h43.77051c-1.71973,14.91211-12.9375,27.35449-27.93359,30.35352l-43.83691,8.76758v-11.12109Zm-2.37305,28.25781l1.77197-8.85889,46.00635-9.20166c4.06372-.8125,7.896-2.198,11.43262-4.04761l3.31543,23.20581c2.02734,14.18848-5.85156,27.81543-19.16113,33.13867l-1.48828,.59668c-7.41895,2.9668-15.58887,2.9668-23.00781,0-13.86035-5.54492-21.7959-20.19434-18.86914-34.83301Zm13.46021,64.4856l10.63477,10.63477-17.21216,11.47437-13.50366-13.50293,20.08105-8.6062Zm11.96704,109.25732l-5.97803,8.21997c-5.08057,6.98438-5.19434,16.0979-.71289,23.09277-1.69824-.91528-3.20288-2.22046-4.35156-3.87891l-15.4585-22.32935,20.34814-13.56494,6.15283,8.46045Zm16.04468-8.46021l20.34766,13.56445-15.45825,22.32861c-2.12109,3.06543-5.46777,5.01465-9.17969,5.34961-3.71289,.33105-7.35352-.98535-9.99023-3.62109-4.38867-4.38867-4.92383-11.2168-1.27246-16.23633l15.55298-21.38525Zm8.90112,202.45947c-6.14209,0-11.75049,2.32202-16,6.13086v-138.13086h-8v138.13086c-4.24951-3.80884-9.85791-6.13086-16-6.13086-7.31641,0-13.87402,3.29468-18.27979,8.47412l-13.3728-160.47412h103.30518l-13.3728,160.47412c-4.40576-5.17944-10.96338-8.47412-18.27979-8.47412Zm-42.56641-162.01172c.4917,.70996,1.02271,1.38086,1.58862,2.01172h-31.44214l-5.97314-53.76221,35.82666,51.75049Zm-13.43359,186.01172c0-8.82227,7.17773-16,16-16s16,7.17773,16,16v8h-32v-8Zm72,8h-32v-8c0-8.82227,7.17773-16,16-16s16,7.17773,16,16v8Zm16.41992-192h-31.44775c.56738-.63428,1.10303-1.30298,1.59424-2.0127l35.82666-51.75-5.97314,53.7627Zm-16.41919-35.47339l-20.19263-13.46118,35.42725-48.71289-6.4707-4.70508-44.76416,61.552-44.76514-61.552-6.4707,4.70508,35.42749,48.71265-20.19312,13.46167-39.67871-57.31396,4.67285-18.69336c1.50684-6.02734,5.81543-11.08594,11.52539-13.53223l14.56885-6.24365,18.08447,18.08447c.77246,.77344,1.79688,1.17188,2.8291,1.17188,.76855,0,1.54102-.2207,2.21777-.67188l21.78125-14.52075,21.78125,14.52075c.67676,.45117,1.44922,.67188,2.21777,.67188,1.03223,0,2.05664-.39844,2.8291-1.17188l18.08472-18.08472,14.56958,6.2439c5.70898,2.44629,10.01758,7.50488,11.52441,13.53125l4.67285,18.69434-39.67896,57.31372Z"/>
</g>
</g>
<g id="d"/>
</svg>