<?xml version="1.0" encoding="iso-8859-1"?>
<!-- Uploaded to: SVG Repo, www.svgrepo.com, Generator: SVG Repo Mixer Tools -->
<svg version="1.1" id="Layer_1" xmlns="http://www.w3.org/2000/svg" xmlns:xlink="http://www.w3.org/1999/xlink" 
	 viewBox="0 0 511.988 511.988" xml:space="preserve">
<path style="fill:#ED5564;" d="M501.332,138.657H10.664C4.774,138.657,0,143.438,0,149.329v213.314
	c0,5.906,4.773,10.688,10.664,10.688h490.668c5.875,0,10.656-4.781,10.656-10.688V149.329
	C511.988,143.438,507.207,138.657,501.332,138.657z"/>
<path style="fill:#E6E9ED;" d="M0,277.334v85.31c0,5.906,4.773,10.688,10.664,10.688h490.668c5.875,0,10.656-4.781,10.656-10.688
	v-85.31H0z"/>
<g>
	<path style="fill:#FFCE54;" d="M159.996,181.328c0,5.891-4.773,10.664-10.664,10.664c-5.89,0-10.671-4.773-10.671-10.664
		s4.781-10.672,10.671-10.672C155.223,170.656,159.996,175.437,159.996,181.328z"/>
	<path style="fill:#FFCE54;" d="M191.995,181.328c0,5.891-4.773,10.664-10.664,10.664s-10.672-4.773-10.672-10.664
		s4.781-10.672,10.672-10.672S191.995,175.437,191.995,181.328z"/>
	<path style="fill:#FFCE54;" d="M159.996,213.327c0,5.891-4.773,10.664-10.664,10.664c-5.89,0-10.671-4.773-10.671-10.664
		s4.781-10.672,10.671-10.672C155.223,202.655,159.996,207.436,159.996,213.327z"/>
	<path style="fill:#FFCE54;" d="M191.995,213.327c0,5.891-4.773,10.664-10.664,10.664s-10.672-4.773-10.672-10.664
		s4.781-10.672,10.672-10.672S191.995,207.436,191.995,213.327z"/>
	<path style="fill:#FFCE54;" d="M159.996,245.326c0,5.891-4.773,10.664-10.664,10.664c-5.89,0-10.671-4.773-10.671-10.664
		s4.781-10.671,10.671-10.671C155.223,234.655,159.996,239.435,159.996,245.326z"/>
	<path style="fill:#FFCE54;" d="M191.995,245.326c0,5.891-4.773,10.664-10.664,10.664s-10.672-4.773-10.672-10.664
		s4.781-10.671,10.672-10.671S191.995,239.435,191.995,245.326z"/>
	<path style="fill:#FFCE54;" d="M341.336,181.328c0,5.891-4.781,10.664-10.688,10.664c-5.875,0-10.656-4.773-10.656-10.664
		s4.781-10.672,10.656-10.672C336.555,170.656,341.336,175.437,341.336,181.328z"/>
	<path style="fill:#FFCE54;" d="M373.334,181.328c0,5.891-4.781,10.664-10.686,10.664c-5.875,0-10.656-4.773-10.656-10.664
		s4.781-10.672,10.656-10.672C368.553,170.656,373.334,175.437,373.334,181.328z"/>
	<path style="fill:#FFCE54;" d="M341.336,213.327c0,5.891-4.781,10.664-10.688,10.664c-5.875,0-10.656-4.773-10.656-10.664
		s4.781-10.672,10.656-10.672C336.555,202.655,341.336,207.436,341.336,213.327z"/>
</g>
<rect x="223.994" y="184.434" style="fill:#CCD1D9;" width="55.36" height="23.11"/>
<g>
	<path style="fill:#FFCE54;" d="M373.334,213.327c0,5.891-4.781,10.664-10.686,10.664c-5.875,0-10.656-4.773-10.656-10.664
		s4.781-10.672,10.656-10.672C368.553,202.655,373.334,207.436,373.334,213.327z"/>
	<path style="fill:#FFCE54;" d="M341.336,245.326c0,5.891-4.781,10.664-10.688,10.664c-5.875,0-10.656-4.773-10.656-10.664
		s4.781-10.671,10.656-10.671C336.555,234.655,341.336,239.435,341.336,245.326z"/>
</g>
<path style="fill:#656D78;" d="M106.662,213.327c0,17.671-14.328,31.999-32,31.999s-31.999-14.328-31.999-31.999
	c0-17.679,14.328-31.999,31.999-31.999S106.662,195.648,106.662,213.327z"/>
<g>
	<path style="fill:#434A54;" d="M74.662,255.99c-23.523,0-42.663-19.14-42.663-42.663c0-23.531,19.14-42.671,42.663-42.671
		c23.531,0,42.671,19.14,42.671,42.671C117.333,236.85,98.193,255.99,74.662,255.99z M74.662,191.992
		c-11.757,0-21.328,9.57-21.328,21.335c0,11.758,9.57,21.328,21.328,21.328c11.766,0,21.335-9.57,21.335-21.328
		C95.998,201.561,86.428,191.992,74.662,191.992z"/>
	<path style="fill:#434A54;" d="M85.334,213.327c0,5.891-4.781,10.664-10.672,10.664c-5.89,0-10.664-4.773-10.664-10.664
		s4.773-10.672,10.664-10.672S85.334,207.436,85.334,213.327z"/>
</g>
<path style="fill:#FFCE54;" d="M373.334,245.326c0,5.891-4.781,10.664-10.686,10.664c-5.875,0-10.656-4.773-10.656-10.664
	s4.781-10.671,10.656-10.671C368.553,234.655,373.334,239.435,373.334,245.326z"/>
<path style="fill:#656D78;" d="M469.332,213.327c0,17.671-14.344,31.999-31.998,31.999c-17.688,0-32-14.328-32-31.999
	c0-17.679,14.312-31.999,32-31.999C454.988,181.328,469.332,195.648,469.332,213.327z"/>
<g>
	<path style="fill:#434A54;" d="M437.334,255.99c-23.531,0-42.688-19.14-42.688-42.663c0-23.531,19.156-42.671,42.688-42.671
		c23.514,0,42.654,19.14,42.654,42.671C479.988,236.85,460.848,255.99,437.334,255.99z M437.334,191.992
		c-11.781,0-21.344,9.57-21.344,21.335c0,11.758,9.562,21.328,21.344,21.328c11.748,0,21.311-9.57,21.311-21.328
		C458.644,201.561,449.082,191.992,437.334,191.992z"/>
	<path style="fill:#434A54;" d="M447.988,213.327c0,5.891-4.781,10.664-10.654,10.664c-5.906,0-10.688-4.773-10.688-10.664
		s4.781-10.672,10.688-10.672C443.207,202.655,447.988,207.436,447.988,213.327z"/>
</g>
<path style="fill:#E6E9ED;" d="M287.992,223.991h-63.997c-5.891,0-10.664-4.773-10.664-10.664v-31.999
	c0-5.891,4.773-10.672,10.664-10.672h63.997c5.891,0,10.656,4.781,10.656,10.672v31.999
	C298.648,219.218,293.883,223.991,287.992,223.991z M234.659,202.655h42.679v-10.664h-42.679V202.655z"/>
<path style="fill:#DA4453;" d="M287.992,255.99h-63.997c-5.891,0-10.664-4.773-10.664-10.664s4.773-10.671,10.664-10.671h63.997
	c5.891,0,10.656,4.781,10.656,10.671S293.883,255.99,287.992,255.99z"/>
<g>
	<path style="fill:#434A54;" d="M437.334,277.334v42.654c0,5.891,4.766,10.656,10.654,10.656c5.891,0,10.656-4.766,10.656-10.656
		v-42.654l0,0H437.334L437.334,277.334z"/>
	<path style="fill:#434A54;" d="M394.646,277.334v42.654c0,5.891,4.781,10.656,10.688,10.656c5.875,0,10.656-4.766,10.656-10.656
		v-42.654l0,0H394.646L394.646,277.334z"/>
	<path style="fill:#434A54;" d="M351.992,277.334v42.654c0,5.891,4.781,10.656,10.656,10.656c5.904,0,10.686-4.766,10.686-10.656
		v-42.654l0,0H351.992L351.992,277.334z"/>
	<path style="fill:#434A54;" d="M309.336,277.334v42.654c0,5.891,4.766,10.656,10.656,10.656s10.656-4.766,10.656-10.656v-42.654
		l0,0H309.336L309.336,277.334z"/>
	<path style="fill:#434A54;" d="M266.658,277.334v42.654c0,5.891,4.781,10.656,10.68,10.656c5.875,0,10.654-4.766,10.654-10.656
		v-42.654l0,0H266.658L266.658,277.334z"/>
	<path style="fill:#434A54;" d="M223.995,277.334v42.654c0,5.891,4.773,10.656,10.664,10.656s10.672-4.766,10.672-10.656v-42.654
		l0,0H223.995L223.995,277.334z"/>
	<path style="fill:#434A54;" d="M181.332,277.334v42.654c0,5.891,4.773,10.656,10.664,10.656s10.664-4.766,10.664-10.656v-42.654
		l0,0H181.332L181.332,277.334z"/>
	<path style="fill:#434A54;" d="M138.661,277.334v42.654c0,5.891,4.781,10.656,10.671,10.656c5.891,0,10.664-4.766,10.664-10.656
		v-42.654l0,0H138.661L138.661,277.334z"/>
	<path style="fill:#434A54;" d="M95.998,277.334v42.654c0,5.891,4.773,10.656,10.664,10.656c5.89,0,10.671-4.766,10.671-10.656
		v-42.654l0,0H95.998L95.998,277.334z"/>
	<path style="fill:#434A54;" d="M53.335,277.334v42.654c0,5.891,4.773,10.656,10.664,10.656c5.89,0,10.664-4.766,10.664-10.656
		v-42.654l0,0H53.335L53.335,277.334z"/>
</g>
</svg>