<?xml version="1.0" encoding="iso-8859-1"?>
<!-- Uploaded to: SVG Repo, www.svgrepo.com, Generator: SVG Repo Mixer Tools -->
<!DOCTYPE svg PUBLIC "-//W3C//DTD SVG 1.1//EN" "http://www.w3.org/Graphics/SVG/1.1/DTD/svg11.dtd">
<svg version="1.1" id="Capa_1" xmlns="http://www.w3.org/2000/svg" xmlns:xlink="http://www.w3.org/1999/xlink" 
	 viewBox="0 0 297 297" xml:space="preserve">
<g>
	<rect x="77.714" y="118.52" style="fill:#B7836C;" width="11.15" height="54.061"/>
	<rect x="38.519" y="118.52" style="fill:#B7836C;" width="11.15" height="54.061"/>
	<rect x="123.159" y="182.364" style="fill:#F86E51;" width="11.15" height="30.763"/>
	<rect x="155.258" y="182.364" style="fill:#F86E51;" width="11.15" height="30.763"/>
	<path style="fill:#F86E51;" d="M84.049,202.315H66.901l-3.107-2.711c-0.601-0.524-1.539-0.097-1.539,0.699v8.799h21.794V202.315z"
		/>
	<path style="fill:#E8563F;" d="M62.255,209.103v11.443c0,0.797,0.939,1.224,1.539,0.7l3.107-2.711h17.148v-9.431H62.255z"/>
	<path style="fill:#FFCF6D;" d="M272.672,169.879H41.39c-13.902,0-25.172-11.27-25.172-25.173
		c0.001-13.903,11.271-25.173,25.173-25.173h41.728c32.438,0,54.341,17.559,63.802,27.039c1.954,1.958,5.295,0.593,5.295-2.174
		V78.62c0-2.767-3.341-4.132-5.295-2.174c-9.461,9.479-31.364,27.038-63.802,27.038H41.306C18.493,103.484,0,121.978,0,144.791l0,0
		c0,22.813,18.493,41.306,41.306,41.306h230.691c4.479,0,8.109,3.631,8.109,8.109s-3.631,8.109-8.109,8.109H84.049v16.218h188.623
		c13.436,0,24.328-10.892,24.328-24.328l0,0C297,180.77,286.108,169.879,272.672,169.879z"/>
	<g style="opacity:0.8;">
		<path style="fill:#FFCF6D;" d="M41.392,119.534h41.728c32.438,0,54.341,17.559,63.802,27.039c1.954,1.958,5.295,0.593,5.295-2.174
			v-9.431c0,2.767-3.341,4.132-5.295,2.174c-9.461-9.48-31.364-27.039-63.802-27.039H41.392c-13.903,0-25.173,11.27-25.173,25.173
			c0,1.613,0.158,3.188,0.448,4.716C18.874,128.343,29.101,119.534,41.392,119.534z"/>
		<path style="fill:#FFCF6D;" d="M272.672,209.103H84.049v9.431h188.623c13.436,0,24.328-10.892,24.328-24.328
			c0-1.614-0.161-3.19-0.461-4.716C294.343,200.669,284.494,209.103,272.672,209.103z"/>
		<path style="fill:#FFCF6D;" d="M278.585,189.491c0.953-1.33,1.521-2.955,1.521-4.715c0-4.479-3.631-8.109-8.109-8.109H41.306
			c-21.217,0-38.689-16-41.03-36.591C0.1,141.624,0,143.195,0,144.791c0,22.813,18.493,41.306,41.306,41.306h230.691
			C274.715,186.097,277.114,187.439,278.585,189.491z"/>
	</g>
	<circle style="fill:#F86E51;" cx="44.094" cy="145.551" r="10.305"/>
	<g style="opacity:0.63;">
		<path style="fill:#FFFFFF;" d="M125.361,103.77c-0.664,0.073-1.307-0.337-1.504-0.998c-0.222-0.743,0.203-1.522,0.947-1.741
			c12.481-3.665,17.644-6.875,17.695-6.907c0.655-0.414,1.525-0.219,1.943,0.435c0.417,0.655,0.224,1.521-0.432,1.935
			c-0.221,0.139-5.549,3.453-18.403,7.227C125.525,103.745,125.443,103.761,125.361,103.77z"/>
	</g>
</g>
</svg>