<?xml version="1.0" encoding="utf-8"?>
<!-- Uploaded to: SVG Repo, www.svgrepo.com, Generator: SVG Repo Mixer Tools -->
<svg width="800px" height="800px" viewBox="0 0 1024 1024" class="icon"  version="1.1" xmlns="http://www.w3.org/2000/svg"><path d="M866.944 138.88l78.784 86.784-14.976 13.568-78.72-86.784zM846.72 156.416l78.72 86.848-15.04 13.632-78.72-86.848z" fill="#5B4037" /><path d="M922.304 114.624l49.408 51.712-148.096 131.2-39.04-40.896z" fill="#B5612C" /><path d="M555.648 782.016a95.296 95.296 0 0 1 132.352-137.024l91.776-94.976c36.736-33.344 34.496-95.552-4.992-138.944L663.04 288c-39.424-43.52-101.248-51.776-137.792-18.432L421.632 351.808a95.232 95.232 0 0 1-146.176 121.984l-2.944-3.584-142.72 113.408c0.96 0.896 1.92 1.728 2.816 2.752 41.984 46.336 37.312 118.976-10.56 162.496a121.408 121.408 0 0 1-32.576 20.992l156.096 172.032c39.488 43.52 101.184 51.776 137.856 18.496l172.224-178.368z" fill="#E88F22" /><path d="M132.544 586.368c-0.896-1.024-1.856-1.856-2.816-2.752l-51.328 40.704c-36.672 33.344-34.432 95.552 5.056 138.944l5.952 6.656c11.584-5.12 22.656-12.032 32.576-20.992 47.936-43.584 52.608-116.224 10.56-162.56z" fill="#5B4037" /><path d="M539.2 562.944l-48.128-52.992 350.784-308.288 38.08 41.92zM480.512 637.952l32.576 17.472-97.024 172.352-25.664-13.824zM405.824 556.992l-14.272-34.112-180.864 79.872 11.2 26.88zM265.344 787.392l-24.128-26.56-88 84.928 19.008 20.992z" fill="#5B4037" /></svg>